<?xml version="1.0" encoding="utf-8"?>
<!-- Generator: Adobe Illustrator 19.0.0, SVG Export Plug-In . SVG Version: 6.00 Build 0)  -->
<svg version="1.1" id="Capa_1" xmlns="http://www.w3.org/2000/svg" xmlns:xlink="http://www.w3.org/1999/xlink" x="0px" y="0px"
	 viewBox="0 0 21.8 21.8" style="enable-background:new 0 0 21.8 21.8;" xml:space="preserve">
<style type="text/css">
	.st0{fill:#FFFFFF;}
</style>
<g id="XMLID_9891_">
	<path id="XMLID_9900_" class="st0" d="M10.9,5.3c-3.1,0-5.6,2.5-5.6,5.6c0,3.1,2.5,5.6,5.6,5.6c3.1,0,5.6-2.5,5.6-5.6
		C16.5,7.8,14,5.3,10.9,5.3z M10.9,14.6c-2,0-3.6-1.6-3.6-3.6c0-2,1.6-3.6,3.6-3.6c2,0,3.6,1.6,3.6,3.6
		C14.6,12.9,12.9,14.6,10.9,14.6z"/>
	<circle id="XMLID_9901_" class="st0" cx="16.7" cy="5.1" r="1.3"/>
	<path id="XMLID_9904_" class="st0" d="M21.8,6.4c-0.1-1.2-0.2-2-0.5-2.7C21,3,20.6,2.4,20,1.8c-0.6-0.6-1.2-1-1.9-1.3
		c-0.7-0.3-1.5-0.5-2.7-0.5C14.3,0,13.9,0,10.9,0C8,0,7.6,0,6.4,0.1c-1.2,0.1-2,0.2-2.7,0.5C3,0.9,2.4,1.2,1.8,1.8
		C1.2,2.4,0.9,3,0.6,3.8C0.3,4.5,0.1,5.3,0.1,6.4C0,7.6,0,8,0,10.9c0,3,0,3.3,0.1,4.5c0.1,1.2,0.2,2,0.5,2.7
		c0.3,0.7,0.7,1.3,1.3,1.9c0.6,0.6,1.2,1,1.9,1.3c0.7,0.3,1.5,0.5,2.7,0.5c1.2,0.1,1.5,0.1,4.5,0.1c3,0,3.3,0,4.5-0.1
		c1.2-0.1,2-0.2,2.7-0.5c0.7-0.3,1.3-0.7,1.9-1.3c0.6-0.6,1-1.2,1.3-1.9c0.3-0.7,0.5-1.5,0.5-2.7c0.1-1.2,0.1-1.5,0.1-4.5
		C21.8,8,21.8,7.6,21.8,6.4z M19.8,15.3c0,1.1-0.2,1.6-0.4,2c-0.2,0.5-0.4,0.9-0.8,1.3c-0.4,0.4-0.7,0.6-1.3,0.8
		c-0.4,0.1-1,0.3-2,0.4c-1.2,0.1-1.5,0.1-4.4,0.1c-2.9,0-3.3,0-4.4-0.1c-1.1,0-1.6-0.2-2-0.4C4,19.2,3.6,19,3.2,18.6
		c-0.4-0.4-0.6-0.7-0.8-1.3c-0.1-0.4-0.3-1-0.4-2C2,14.2,2,13.8,2,10.9S2,7.7,2,6.5c0-1.1,0.2-1.6,0.4-2C2.6,4,2.8,3.6,3.2,3.2
		C3.6,2.8,4,2.6,4.5,2.4c0.4-0.1,1-0.3,2-0.4C7.7,2,8,2,10.9,2s3.3,0,4.4,0.1c1.1,0,1.6,0.2,2,0.4c0.5,0.2,0.9,0.4,1.3,0.8
		C19,3.6,19.2,4,19.4,4.5c0.1,0.4,0.3,1,0.4,2c0.1,1.2,0.1,1.5,0.1,4.4S19.9,14.2,19.8,15.3z"/>
</g>
</svg>
